<svg width="231" height="38" viewBox="0 0 231 38" fill="none" xmlns="http://www.w3.org/2000/svg">
<path d="M21.5114 10.4109C21.1906 8.46591 20.2973 6.98945 18.8313 5.98229C17.3654 4.97433 15.5283 4.47035 13.3201 4.47035C10.8982 4.47035 8.95153 5.04206 7.4791 6.1855C6.00667 7.32893 5.27086 8.78442 5.27086 10.5528C5.27086 12.0026 5.84099 13.1961 6.98044 14.1331C8.11988 15.0701 9.90093 15.8571 12.3228 16.4933L16.0262 17.4835C19.4811 18.4028 22.054 19.6285 23.7457 21.1606C25.4374 22.6927 26.2828 24.6965 26.2828 27.1721C26.2828 28.9872 25.8223 30.7144 24.903 32.3522C23.9828 33.9907 22.5526 35.3285 20.6116 36.3655C18.6705 37.4025 16.1691 37.921 13.1057 37.921C10.6124 37.921 8.40738 37.4992 6.49071 36.6566C4.57322 35.8139 3.048 34.6294 1.91424 33.1029C0.780477 31.5764 0.142126 29.7879 0 27.7373H4.5586C4.80793 29.8234 5.78739 31.3821 7.49696 32.4135C9.20654 33.4448 11.2182 33.9601 13.5337 33.9601C16.3827 33.9601 18.5073 33.3061 19.9082 31.9974C21.3092 30.6894 22.0093 29.1509 22.0093 27.3825C22.0093 25.7561 21.4124 24.5247 20.2193 23.6877C19.0263 22.8507 17.2014 22.079 14.7438 21.3718L10.2567 20.0986C7.40763 19.285 5.15228 18.1246 3.48981 16.6159C1.82734 15.1072 0.996509 13.1332 0.996509 10.6931C0.996509 8.66589 1.55121 6.8951 2.66142 5.37993C3.77163 3.86557 5.2668 2.68666 7.14855 1.844C9.0303 1.00135 11.1346 0.579617 13.4614 0.579617C15.7882 0.579617 17.8925 1.00135 19.7028 1.844C21.5131 2.68666 22.9498 3.84783 24.012 5.32671C25.0743 6.8064 25.6648 8.50058 25.7842 10.4101H21.5106L21.5114 10.4109Z" fill="#055A9B"/>
<path d="M41.6406 37.2848H31.5261V1.07557H42.1385C45.3911 1.07557 48.2872 1.79807 50.8285 3.24147C53.3689 4.68568 55.3692 6.75402 56.8294 9.44729C58.2897 12.1406 59.0198 15.3612 59.0198 19.1092C59.0198 22.8572 58.284 26.1254 56.8116 28.8421C55.3391 31.5587 53.2974 33.6448 50.6863 35.1011C48.0745 36.5566 45.0598 37.2848 41.6406 37.2848ZM41.8542 4.9663H35.9426V33.3956H41.3555C44.086 33.3956 46.4542 32.8183 48.4602 31.6628C50.4662 30.508 52.015 28.8639 53.1082 26.7302C54.2005 24.5974 54.7463 22.0573 54.7463 19.11C54.7463 16.1627 54.2062 13.6678 53.126 11.5519C52.0459 9.43681 50.5377 7.80955 48.6032 6.67257C46.6678 5.53559 44.419 4.9663 41.8542 4.9663Z" fill="#055A9B"/>
<path d="M64.4222 1.07557H69.6931L80.5905 30H81.0177L91.9866 1.07557H97.2575V37.284H93.1261V10.1279H92.7704L82.8702 37.0017H78.8103L68.9102 10.1279H68.5536V37.284H64.4222V1.07557Z" fill="#055A9B"/>
<path d="M110.482 27.9865C108.808 27.9865 107.971 27.4188 107.971 26.2835C107.971 25.1481 108.808 24.6215 110.482 24.6215H111.57C111.709 24.6215 111.78 24.553 111.78 24.4135V8.6272C111.78 8.48931 111.71 8.41916 111.57 8.41916H111.026C109.352 8.41916 108.516 7.85147 108.516 6.71611C108.516 5.58074 109.352 5.05418 111.026 5.05418H111.57C111.709 5.05418 111.78 4.98564 111.78 4.84613V2.76893C111.78 1.107 112.365 0.276441 113.537 0.276441C114.709 0.276441 115.295 1.107 115.295 2.76893V4.84613C115.295 4.98483 115.364 5.05418 115.504 5.05418H121.864C122.003 5.05418 122.073 4.98564 122.073 4.84613V2.76893C122.073 1.107 122.672 0.276441 123.872 0.276441C125.071 0.276441 125.671 1.107 125.671 2.76893V4.84613C125.671 4.98483 125.74 5.05418 125.88 5.05418C127.582 5.05418 128.433 5.60815 128.433 6.71611C128.433 7.82406 127.596 8.41916 125.922 8.41916C125.755 8.41916 125.671 8.4885 125.671 8.6272V24.4143C125.671 24.553 125.74 24.6223 125.881 24.6223H126.174C127.848 24.6223 128.684 25.1771 128.684 26.2843C128.684 27.3914 127.848 27.9873 126.174 27.9873H110.483L110.482 27.9865ZM112.03 37.0227C111.387 37.5904 110.663 37.4033 109.854 36.4614C109.044 35.5478 109.31 34.5649 110.649 33.5118C111.318 32.9578 111.96 32.0022 112.574 30.6451C113.271 29.1227 114.192 28.6235 115.335 29.1493C116.479 29.6476 116.904 30.2226 116.611 30.8733C116.318 31.5241 115.641 32.5699 114.581 34.0101C113.521 35.4503 112.67 36.4542 112.029 37.0219L112.03 37.0227ZM115.294 11.41C115.294 11.5487 115.363 11.618 115.503 11.618H121.863C122.002 11.618 122.072 11.5495 122.072 11.41V8.62639C122.072 8.4885 122.002 8.41835 121.863 8.41835H115.503C115.364 8.41835 115.294 8.4877 115.294 8.62639V11.41ZM115.294 17.7666C115.294 17.9053 115.363 17.9746 115.503 17.9746H121.863C122.002 17.9746 122.072 17.9061 122.072 17.7666V14.8588C122.072 14.7209 122.002 14.6508 121.863 14.6508H115.503C115.364 14.6508 115.294 14.7201 115.294 14.8588V17.7666ZM115.294 24.4135C115.294 24.5522 115.363 24.6215 115.503 24.6215H121.863C122.002 24.6215 122.072 24.553 122.072 24.4135V21.2146C122.072 21.0767 122.002 21.0066 121.863 21.0066H115.503C115.364 21.0066 115.294 21.0759 115.294 21.2146V24.4135ZM124.541 34.7165C123.425 35.2422 122.706 35.1527 122.386 34.4463C122.065 33.74 121.64 33.0408 121.11 32.3482C120.078 31.0467 119.981 30.0492 120.817 29.3573C121.654 28.6655 122.63 28.9421 123.746 30.1879C124.582 31.158 125.196 32.0232 125.587 32.7844C125.978 33.5464 125.629 34.1907 124.541 34.7165ZM129.186 36.8767C128.041 38.0952 127.024 38.2895 126.131 37.4581C125.21 36.6276 125.308 35.589 126.424 34.3423C127.4 33.29 128.293 31.158 129.102 27.9446C129.687 25.5626 129.981 22.4887 129.981 18.7213V6.54999C129.981 4.99934 130.734 4.0438 132.24 3.68335C136.452 2.71409 139.535 1.71742 141.487 0.692528C142.965 -0.110616 143.998 0.055496 144.583 1.19086C145.169 2.32704 144.709 3.26807 143.202 4.01557C142.115 4.54213 139.018 5.3864 133.913 6.54999C133.69 6.60563 133.579 6.75804 133.579 7.0072V13.3638C133.579 13.5025 133.648 13.5719 133.788 13.5719H143.872C145.546 13.5719 146.382 14.1678 146.382 15.358C146.382 16.5482 145.546 17.1441 143.872 17.1441H142.575C142.435 17.1441 142.365 17.2134 142.365 17.3521V35.5075C142.365 37.1694 141.751 38 140.524 38C139.297 38 138.683 37.1694 138.683 35.5075V17.3521C138.683 17.2142 138.613 17.1441 138.473 17.1441H133.787C133.648 17.1441 133.578 17.2134 133.578 17.3521V18.7649C133.578 23.1136 133.215 26.6729 132.489 29.442C131.569 33.015 130.466 35.493 129.184 36.8783L129.186 36.8767Z" fill="#318D7F"/>
<path d="M154.794 35.8301C153.509 36.9106 152.433 36.9654 151.568 35.9962C150.703 34.9987 150.898 33.9472 152.155 32.8384C154.473 30.8169 155.939 26.8286 156.554 20.8735C156.554 20.7356 156.484 20.6655 156.345 20.6655H153.496C151.82 20.6655 150.982 20.0422 150.982 18.7963C150.982 17.5505 151.82 16.9683 153.496 16.9683H156.596C156.735 16.9683 156.805 16.8997 156.805 16.7602V3.59223C156.805 1.9303 157.643 1.09974 159.319 1.09974H180.308C181.983 1.09974 182.822 1.9303 182.822 3.59223V16.7618C182.822 16.9005 182.891 16.9699 183.031 16.9699H185.754C187.43 16.9699 188.268 17.5795 188.268 18.7979C188.268 20.0164 187.43 20.6671 185.754 20.6671H183.031C182.891 20.6671 182.822 20.7364 182.822 20.8751V32.507C182.822 33.698 182.647 34.6116 182.298 35.2487C181.949 35.8857 181.376 36.3494 180.58 36.6405C179.784 36.9316 179.093 37.1041 178.506 37.1598C177.64 37.2146 176.774 37.2428 175.909 37.2428L173.772 37.2848C172.096 37.3122 171.272 36.7034 171.3 35.4567C171.3 34.2101 172.152 33.6287 173.855 33.7117C174.33 33.7399 175.182 33.7262 176.411 33.6706C177.249 33.6432 177.787 33.6222 178.024 33.6085C178.261 33.5948 178.464 33.5117 178.632 33.3593C178.799 33.2077 178.883 32.9231 178.883 32.5078V20.8759C178.883 20.7381 178.813 20.6679 178.673 20.6679H160.7C160.533 20.6679 160.435 20.751 160.407 20.9171C159.737 28.201 157.865 33.1723 154.793 35.8309L154.794 35.8301ZM160.66 16.7618C160.66 16.9005 160.729 16.9699 160.869 16.9699H178.675C178.814 16.9699 178.884 16.9014 178.884 16.7618V4.92112C178.884 4.78324 178.814 4.71308 178.675 4.71308H160.911C160.772 4.71308 160.702 4.78243 160.702 4.92112L160.66 16.761V16.7618ZM173.312 14.4355C172.334 15.266 171.315 15.0169 170.254 13.688C169.778 13.0792 168.521 11.9575 166.483 10.323C165.198 9.2989 164.905 8.34335 165.603 7.45635C166.301 6.57015 167.306 6.61208 168.62 7.58134C171.021 9.35373 172.543 10.6004 173.186 11.3205C174.275 12.5945 174.318 13.6331 173.312 14.4363V14.4355Z" fill="#318D7F"/>
<path d="M196.606 36.6509C195.156 37.5371 194.11 37.4404 193.468 36.3598C192.854 35.2801 193.286 34.3383 194.765 33.5351C195.713 33.0094 196.926 31.4031 198.405 28.7163C198.544 28.4671 198.516 28.2454 198.321 28.0518C196.592 26.2794 195.532 25.2408 195.142 24.936C193.998 24.0224 193.635 22.8733 194.054 21.488C194.528 19.8261 195.183 16.6135 196.02 11.8503C196.047 11.7124 195.991 11.6422 195.853 11.6422H195.559C193.886 11.6422 193.049 11.0471 193.049 9.8561C193.049 8.6651 193.886 8.11112 195.559 8.11112H196.354C196.549 8.11112 196.661 8.01436 196.689 7.82002C197.163 4.60745 197.414 2.77941 197.442 2.33671C197.581 0.674786 198.222 -0.100135 199.367 0.0103375C200.51 0.121616 200.971 1.00701 200.747 2.66894L200.12 7.90308C200.091 8.04177 200.147 8.11112 200.287 8.11112L202.923 8.06919C203.844 8.04177 204.681 8.06919 205.433 8.15225C206.159 8.26353 206.48 9.12231 206.396 10.7278C206.061 17.3473 204.987 22.8169 203.174 27.1374C203.062 27.4422 203.118 27.7051 203.341 27.9268C205.015 29.6444 205.922 30.6137 206.061 30.8346C206.981 32.2474 206.912 33.286 205.852 33.9504C204.764 34.6149 204.101 34.7463 203.864 34.3447C203.627 33.944 202.797 32.9255 201.375 31.291C201.292 31.1805 201.208 31.1805 201.124 31.291C199.506 34.0052 198 35.7914 196.605 36.6501L196.606 36.6509ZM200.038 24.728C200.149 24.811 200.232 24.7836 200.289 24.6449C201.516 21.3493 202.366 17.0836 202.841 11.8494C202.841 11.7116 202.771 11.6414 202.632 11.6414H199.828C199.605 11.6414 199.479 11.7527 199.451 11.9736C198.782 15.6853 198.112 18.9528 197.443 21.7775C197.359 22.1379 197.457 22.4419 197.736 22.6911L200.038 24.7264V24.728ZM220.205 37.7307C218.531 37.6194 217.722 37.0098 217.778 35.9026C217.833 34.8229 218.698 34.3238 220.372 34.4068C221.236 34.435 221.829 34.4487 222.15 34.4487C222.471 34.4487 222.722 34.3109 222.903 34.0335C223.084 33.7569 223.251 33.5077 223.405 33.286C223.557 33.0642 223.691 32.5659 223.802 31.7901C223.83 31.6523 223.773 31.5821 223.635 31.5821H210.664C208.934 31.5821 208.153 30.7241 208.321 29.0066L209.45 18.3302C209.478 18.1923 209.422 18.1222 209.283 18.1222C207.833 18.1222 207.107 17.5408 207.107 16.3772C207.107 15.2136 207.93 14.6742 209.576 14.6742C209.715 14.6742 209.786 14.5911 209.786 14.425L210.414 3.9559C210.497 2.3222 211.361 1.50454 213.008 1.50454H226.439C228.113 1.50454 228.921 2.3351 228.866 3.99703L228.615 14.4661C228.615 14.6048 228.684 14.6742 228.824 14.6742C230.275 14.6742 231 15.2418 231 16.3772C231 17.5126 230.233 18.1222 228.698 18.1222C228.559 18.1222 228.489 18.1915 228.489 18.3302C228.377 22.2355 228.209 25.4343 227.987 27.9268C227.987 28.0655 228.056 28.1349 228.196 28.1349C229.562 28.1349 230.247 28.7026 230.247 29.8379C230.247 30.9733 229.437 31.5829 227.82 31.5829C227.681 31.5829 227.597 31.6805 227.569 31.874C227.262 33.7577 227.004 34.8374 226.795 35.1148C226.586 35.3914 226.384 35.6889 226.189 36.0083C225.993 36.326 225.771 36.5695 225.52 36.7356C225.269 36.9017 225.032 37.0469 224.808 37.1719C224.585 37.296 224.299 37.3936 223.951 37.463C223.601 37.5315 222.995 37.6355 222.131 37.7742C221.88 37.8016 221.237 37.7879 220.206 37.7331L220.205 37.7307ZM212.213 27.926C212.213 28.0647 212.282 28.1341 212.423 28.1341H224.054C224.222 28.1341 224.319 28.051 224.348 27.8849C224.57 25.2819 224.751 22.0968 224.892 18.3302C224.892 18.1923 224.822 18.1222 224.682 18.1222H213.343C213.176 18.1222 213.077 18.2053 213.05 18.3714L212.213 27.926ZM213.343 14.4661C213.343 14.6048 213.412 14.6742 213.553 14.6742H224.808C224.947 14.6742 225.018 14.6056 225.018 14.4661L225.269 5.11869C225.269 4.9808 225.199 4.91064 225.059 4.91064H214.222C214.054 4.91064 213.971 4.9937 213.971 5.15981L213.343 14.4653V14.4661ZM221.21 26.0569C220.289 26.6665 219.382 26.2512 218.49 24.8102C218.322 24.5611 217.695 23.8966 216.607 22.8161C215.435 21.6259 215.184 20.684 215.854 19.9914C216.551 19.2995 217.5 19.5204 218.699 20.6558C220.122 21.9581 220.944 22.7612 221.168 23.0652C222.116 24.4506 222.131 25.4473 221.21 26.0561V26.0569ZM221.628 12.597C220.708 13.1783 219.8 12.7776 218.908 11.3922C218.685 11.06 218.196 10.5197 217.444 9.77224C216.272 8.58204 216.021 7.6402 216.691 6.94753C217.388 6.25567 218.336 6.49032 219.536 7.65391C220.818 8.90056 221.711 9.88352 222.213 10.6036C222.715 11.3245 222.52 11.989 221.628 12.5978V12.597Z" fill="#318D7F"/>
</svg>
